<svg xmlns="http://www.w3.org/2000/svg" viewBox="0 0 512 512">
  <defs>
    <linearGradient id="silver" x1="0" y1="0" x2="1" y2="1">
      <stop offset="0" stop-color="#ffffff"/><stop offset="0.38" stop-color="#d9dce0"/><stop offset="0.72" stop-color="#9da2a8"/><stop offset="1" stop-color="#f7f7f7"/>
    </linearGradient>
    <linearGradient id="gold" x1="0" y1="0" x2="1" y2="1">
      <stop offset="0" stop-color="#fff0a3"/><stop offset="0.35" stop-color="#d4af37"/><stop offset="0.7" stop-color="#9a7211"/><stop offset="1" stop-color="#f4d465"/>
    </linearGradient>
    <linearGradient id="black" x1="0" y1="0" x2="0" y2="1">
      <stop offset="0" stop-color="#34363a"/><stop offset="1" stop-color="#090a0c"/>
    </linearGradient>
    <filter id="shadow" x="-20%" y="-20%" width="140%" height="140%"><feDropShadow dx="0" dy="10" stdDeviation="10" flood-opacity=".35"/></filter>
  </defs>
  <rect x="10" y="10" width="492" height="492" rx="92" fill="url(#silver)" stroke="#7f858b" stroke-width="8"/>
  <rect x="32" y="32" width="448" height="448" rx="72" fill="none" stroke="url(#gold)" stroke-width="12"/>
  <g filter="url(#shadow)">
    <rect x="333" y="116" width="105" height="266" rx="20" fill="url(#black)" stroke="url(#gold)" stroke-width="10"/>
    <rect x="352" y="142" width="67" height="58" rx="10" fill="#15171a" stroke="#e4bd43" stroke-width="6"/>
    <rect x="362" y="153" width="47" height="28" rx="5" fill="url(#gold)"/>
    <path d="M438 172c34 8 42 37 35 72-5 24-20 41-42 41h-12" fill="none" stroke="#17191c" stroke-width="15" stroke-linecap="round"/>
    <path d="M419 281l30-12 12 30-30 12z" fill="url(#gold)" stroke="#111317" stroke-width="5"/>
    <path d="M430 300c-43 17-60 42-75 70" fill="none" stroke="#111317" stroke-width="15" stroke-linecap="round"/>
    <path d="M357 338c-13 17-21 36-27 52" fill="none" stroke="url(#gold)" stroke-width="8" stroke-linecap="round"/>

    <path d="M78 316h248l-23-78c-8-27-28-43-57-43H157c-29 0-49 16-57 43L78 316Z" fill="url(#black)" stroke="#111317" stroke-width="8"/>
    <path d="M115 238c9-23 24-33 47-33h79c23 0 38 10 47 33H115Z" fill="#111317" stroke="url(#gold)" stroke-width="5"/>
    <path d="M91 318v47c0 18 14 32 32 32h17v-35h126v35h17c18 0 32-14 32-32v-47" fill="url(#black)" stroke="#111317" stroke-width="8"/>
    <path d="M111 313h63" stroke="url(#gold)" stroke-width="12" stroke-linecap="round"/>
    <path d="M232 313h63" stroke="url(#gold)" stroke-width="12" stroke-linecap="round"/>
    <circle cx="137" cy="337" r="17" fill="#f4d465" stroke="#7f5c0b" stroke-width="5"/>
    <circle cx="270" cy="337" r="17" fill="#f4d465" stroke="#7f5c0b" stroke-width="5"/>
    <path d="M174 360h58" stroke="url(#gold)" stroke-width="7" stroke-linecap="round"/>
    <path d="M316 269l28 7" stroke="url(#gold)" stroke-width="10" stroke-linecap="round"/>
  </g>
</svg>
